<svg width="320" height="60" viewBox="0 0 320 60" fill="none" xmlns="http://www.w3.org/2000/svg">
<path d="M97.89 46C96.014 42.668 93.984 39.378 91.8 36.13C89.616 32.882 87.292 29.816 84.828 26.932V46H78.36V16.894H83.694C84.618 17.818 85.64 18.952 86.76 20.296C87.88 21.64 89.014 23.082 90.162 24.622C91.338 26.134 92.5 27.716 93.648 29.368C94.796 30.992 95.874 32.56 96.882 34.072V16.894H103.392V46H97.89ZM133.92 34.912C133.92 36.648 133.668 38.244 133.164 39.7C132.66 41.128 131.932 42.36 130.98 43.396C130.028 44.404 128.88 45.188 127.536 45.748C126.22 46.308 124.736 46.588 123.084 46.588C121.46 46.588 119.976 46.308 118.632 45.748C117.316 45.188 116.182 44.404 115.23 43.396C114.278 42.36 113.536 41.128 113.004 39.7C112.472 38.244 112.206 36.648 112.206 34.912C112.206 33.176 112.472 31.594 113.004 30.166C113.564 28.738 114.32 27.52 115.272 26.512C116.252 25.504 117.4 24.72 118.716 24.16C120.06 23.6 121.516 23.32 123.084 23.32C124.68 23.32 126.136 23.6 127.452 24.16C128.796 24.72 129.944 25.504 130.896 26.512C131.848 27.52 132.59 28.738 133.122 30.166C133.654 31.594 133.92 33.176 133.92 34.912ZM127.536 34.912C127.536 32.98 127.144 31.468 126.36 30.376C125.604 29.256 124.512 28.696 123.084 28.696C121.656 28.696 120.55 29.256 119.766 30.376C118.982 31.468 118.59 32.98 118.59 34.912C118.59 36.844 118.982 38.384 119.766 39.532C120.55 40.652 121.656 41.212 123.084 41.212C124.512 41.212 125.604 40.652 126.36 39.532C127.144 38.384 127.536 36.844 127.536 34.912ZM142.128 18.406L148.386 17.398V23.908H155.904V29.116H148.386V36.886C148.386 38.202 148.61 39.252 149.058 40.036C149.534 40.82 150.472 41.212 151.872 41.212C152.544 41.212 153.23 41.156 153.93 41.044C154.658 40.904 155.316 40.722 155.904 40.498L156.786 45.37C156.03 45.678 155.19 45.944 154.266 46.168C153.342 46.392 152.208 46.504 150.864 46.504C149.156 46.504 147.742 46.28 146.622 45.832C145.502 45.356 144.606 44.712 143.934 43.9C143.262 43.06 142.786 42.052 142.506 40.876C142.254 39.7 142.128 38.398 142.128 36.97V18.406ZM162.7 35.122C162.7 33.162 162.994 31.454 163.582 29.998C164.198 28.514 164.996 27.282 165.976 26.302C166.956 25.322 168.076 24.58 169.336 24.076C170.624 23.572 171.94 23.32 173.284 23.32C176.42 23.32 178.898 24.286 180.718 26.218C182.538 28.122 183.448 30.936 183.448 34.66C183.448 35.024 183.434 35.43 183.406 35.878C183.378 36.298 183.35 36.676 183.322 37.012H169.126C169.266 38.3 169.868 39.322 170.932 40.078C171.996 40.834 173.424 41.212 175.216 41.212C176.364 41.212 177.484 41.114 178.576 40.918C179.696 40.694 180.606 40.428 181.306 40.12L182.146 45.202C181.81 45.37 181.362 45.538 180.802 45.706C180.242 45.874 179.612 46.014 178.912 46.126C178.24 46.266 177.512 46.378 176.728 46.462C175.944 46.546 175.16 46.588 174.376 46.588C172.388 46.588 170.652 46.294 169.168 45.706C167.712 45.118 166.494 44.32 165.514 43.312C164.562 42.276 163.848 41.058 163.372 39.658C162.924 38.258 162.7 36.746 162.7 35.122ZM177.4 32.728C177.372 32.196 177.274 31.678 177.106 31.174C176.966 30.67 176.728 30.222 176.392 29.83C176.084 29.438 175.678 29.116 175.174 28.864C174.698 28.612 174.096 28.486 173.368 28.486C172.668 28.486 172.066 28.612 171.562 28.864C171.058 29.088 170.638 29.396 170.302 29.788C169.966 30.18 169.7 30.642 169.504 31.174C169.336 31.678 169.21 32.196 169.126 32.728H177.4ZM206.001 34.786C206.001 30.754 204.517 28.738 201.549 28.738C200.905 28.738 200.261 28.822 199.617 28.99C199.001 29.158 198.497 29.368 198.105 29.62V41.002C198.413 41.058 198.805 41.114 199.281 41.17C199.757 41.198 200.275 41.212 200.835 41.212C202.543 41.212 203.831 40.624 204.699 39.448C205.567 38.272 206.001 36.718 206.001 34.786ZM212.385 34.954C212.385 36.718 212.119 38.314 211.587 39.742C211.083 41.17 210.341 42.388 209.361 43.396C208.381 44.404 207.177 45.188 205.749 45.748C204.321 46.28 202.697 46.546 200.877 46.546C200.121 46.546 199.323 46.504 198.483 46.42C197.671 46.364 196.859 46.28 196.047 46.168C195.263 46.056 194.507 45.93 193.779 45.79C193.051 45.622 192.407 45.454 191.847 45.286V14.416L198.105 13.408V24.412C198.805 24.104 199.533 23.866 200.289 23.698C201.045 23.53 201.857 23.446 202.725 23.446C204.293 23.446 205.679 23.726 206.883 24.286C208.087 24.818 209.095 25.588 209.907 26.596C210.719 27.604 211.335 28.822 211.755 30.25C212.175 31.65 212.385 33.218 212.385 34.954ZM241.429 34.912C241.429 36.648 241.177 38.244 240.673 39.7C240.169 41.128 239.441 42.36 238.489 43.396C237.537 44.404 236.389 45.188 235.045 45.748C233.729 46.308 232.245 46.588 230.593 46.588C228.969 46.588 227.485 46.308 226.141 45.748C224.825 45.188 223.691 44.404 222.739 43.396C221.787 42.36 221.045 41.128 220.513 39.7C219.981 38.244 219.715 36.648 219.715 34.912C219.715 33.176 219.981 31.594 220.513 30.166C221.073 28.738 221.829 27.52 222.781 26.512C223.761 25.504 224.909 24.72 226.225 24.16C227.569 23.6 229.025 23.32 230.593 23.32C232.189 23.32 233.645 23.6 234.961 24.16C236.305 24.72 237.453 25.504 238.405 26.512C239.357 27.52 240.099 28.738 240.631 30.166C241.163 31.594 241.429 33.176 241.429 34.912ZM235.045 34.912C235.045 32.98 234.653 31.468 233.869 30.376C233.113 29.256 232.021 28.696 230.593 28.696C229.165 28.696 228.059 29.256 227.275 30.376C226.491 31.468 226.099 32.98 226.099 34.912C226.099 36.844 226.491 38.384 227.275 39.532C228.059 40.652 229.165 41.212 230.593 41.212C232.021 41.212 233.113 40.652 233.869 39.532C234.653 38.384 235.045 36.844 235.045 34.912ZM258.288 41.632C258.904 41.632 259.492 41.618 260.052 41.59C260.612 41.562 261.06 41.52 261.396 41.464V36.718C261.144 36.662 260.766 36.606 260.262 36.55C259.758 36.494 259.296 36.466 258.876 36.466C258.288 36.466 257.728 36.508 257.196 36.592C256.692 36.648 256.244 36.774 255.852 36.97C255.46 37.166 255.152 37.432 254.928 37.768C254.704 38.104 254.592 38.524 254.592 39.028C254.592 40.008 254.914 40.694 255.558 41.086C256.23 41.45 257.14 41.632 258.288 41.632ZM257.784 23.32C259.632 23.32 261.172 23.53 262.404 23.95C263.636 24.37 264.616 24.972 265.344 25.756C266.1 26.54 266.632 27.492 266.94 28.612C267.248 29.732 267.402 30.978 267.402 32.35V45.37C266.506 45.566 265.26 45.79 263.664 46.042C262.068 46.322 260.136 46.462 257.868 46.462C256.44 46.462 255.138 46.336 253.962 46.084C252.814 45.832 251.82 45.426 250.98 44.866C250.14 44.278 249.496 43.522 249.048 42.598C248.6 41.674 248.376 40.54 248.376 39.196C248.376 37.908 248.628 36.816 249.132 35.92C249.664 35.024 250.364 34.31 251.232 33.778C252.1 33.246 253.094 32.868 254.214 32.644C255.334 32.392 256.496 32.266 257.7 32.266C258.512 32.266 259.226 32.308 259.842 32.392C260.486 32.448 261.004 32.532 261.396 32.644V32.056C261.396 30.992 261.074 30.138 260.43 29.494C259.786 28.85 258.666 28.528 257.07 28.528C256.006 28.528 254.956 28.612 253.92 28.78C252.884 28.92 251.988 29.13 251.232 29.41L250.434 24.37C250.798 24.258 251.246 24.146 251.778 24.034C252.338 23.894 252.94 23.782 253.584 23.698C254.228 23.586 254.9 23.502 255.6 23.446C256.328 23.362 257.056 23.32 257.784 23.32ZM289.945 29.452C289.385 29.312 288.727 29.172 287.971 29.032C287.215 28.864 286.403 28.78 285.535 28.78C285.143 28.78 284.667 28.822 284.107 28.906C283.575 28.962 283.169 29.032 282.889 29.116V46H276.631V25.084C277.751 24.692 279.067 24.328 280.579 23.992C282.119 23.628 283.827 23.446 285.703 23.446C286.039 23.446 286.445 23.474 286.921 23.53C287.397 23.558 287.873 23.614 288.349 23.698C288.825 23.754 289.301 23.838 289.777 23.95C290.253 24.034 290.659 24.146 290.995 24.286L289.945 29.452ZM302.844 34.786C302.844 36.718 303.278 38.272 304.146 39.448C305.014 40.624 306.302 41.212 308.01 41.212C308.57 41.212 309.088 41.198 309.564 41.17C310.04 41.114 310.432 41.058 310.74 41.002V29.62C310.348 29.368 309.83 29.158 309.186 28.99C308.57 28.822 307.94 28.738 307.296 28.738C304.328 28.738 302.844 30.754 302.844 34.786ZM316.998 45.286C316.438 45.454 315.794 45.622 315.066 45.79C314.338 45.93 313.568 46.056 312.756 46.168C311.972 46.28 311.16 46.364 310.32 46.42C309.508 46.504 308.724 46.546 307.968 46.546C306.148 46.546 304.524 46.28 303.096 45.748C301.668 45.216 300.464 44.46 299.484 43.48C298.504 42.472 297.748 41.268 297.216 39.868C296.712 38.44 296.46 36.844 296.46 35.08C296.46 33.288 296.684 31.678 297.132 30.25C297.58 28.794 298.224 27.562 299.064 26.554C299.904 25.546 300.926 24.776 302.13 24.244C303.362 23.712 304.762 23.446 306.33 23.446C307.198 23.446 307.968 23.53 308.64 23.698C309.34 23.866 310.04 24.104 310.74 24.412V14.416L316.998 13.408V45.286Z" fill="#3B3B3B"/>
<path d="M54.0252 47.063C57.8401 43.6631 60.0002 39.1313 60.0002 34.4284C60.0002 29.4305 57.6604 24.7563 53.4119 21.2661C49.2769 17.8704 43.8037 16 37.9998 16C32.1958 16 26.7226 17.8704 22.5883 21.2663C18.3397 24.7563 16 29.4305 16 34.4284C16 39.4264 18.3397 44.1006 22.5883 47.5908C26.7226 50.9868 32.1958 52.857 37.9998 52.857C38.7731 52.857 39.5513 52.8229 40.3229 52.755L41.6411 53.8976C46.1825 57.8329 51.9903 59.9993 57.9996 59.9995H59.9995V55.7425L59.4138 55.1568C57.1031 52.8393 55.272 50.0889 54.0252 47.063V47.063ZM44.2608 50.8746L41.6157 48.582L40.7337 48.6902C39.8266 48.8011 38.9136 48.8567 37.9998 48.8568C28.0749 48.8568 20 42.3842 20 34.4284C20 26.4726 28.0749 20 37.9998 20C47.9247 20 55.9996 26.4725 55.9996 34.4284C55.9996 38.3921 54.0221 42.0926 50.4314 44.8481L49.2795 45.7319L49.811 47.2363C50.9002 50.3087 52.5012 53.1748 54.5462 55.7133C50.7378 55.0776 47.1787 53.4033 44.2608 50.8746V50.8746Z" fill="#3B3B3B"/>
<path d="M5.52307 37.6841C7.39521 35.3143 8.86511 32.6529 9.87402 29.8063L10.4015 28.3095L9.25065 27.4262C5.86469 24.828 3.99996 21.3408 3.99996 17.6069C3.99996 10.104 11.626 3.99996 20.9998 3.99996C27.8957 3.99996 33.8455 7.30367 36.5092 12.0374C37.0039 12.0134 37.5006 11.9999 37.9996 11.9999C39.0018 11.9999 39.9949 12.0485 40.9788 12.1457C39.9495 9.4789 38.1617 7.04443 35.7039 5.0257C31.7587 1.78486 26.5372 0 20.9998 0C15.4623 0 10.2409 1.78486 6.29543 5.0257C2.23573 8.36054 0 12.8286 0 17.6069C0 22.0819 2.04398 26.3937 5.65619 29.6372C4.47738 32.474 2.75492 35.0528 0.585869 37.2282L0 37.814V41.9996H1.99998C5.69833 41.9991 9.34581 41.1378 12.6537 39.484C12.291 38.1091 12.0785 36.699 12.0199 35.2784C10.0121 36.4551 7.813 37.2694 5.52307 37.6841V37.6841Z" fill="#3B3B3B"/>
</svg>
